<svg xmlns="http://www.w3.org/2000/svg" viewBox="0 0 256 256">
	<path fill="#0052cc" d="M0 0h256v256H0z"/>
	<path d="M145.984-2.529c32.695 0 62.594 12.584 84.965 33.126-10.97-.323-21.94 6.237-22.37 21.08-.969 30.113 36.029 36.566 16.132 97.225l-16.455 50.118L163.3 66.84c-.646-2.043.107-3.227 2.58-3.227h12.692c.645 0 1.183-.537 1.183-1.29v-7.529c0-.645-.538-1.29-1.183-1.29a795.468 795.468 0 01-71.628 0c-.646 0-1.184.538-1.184 1.29v7.529c0 .645.538 1.29 1.184 1.29h12.798c2.796 0 3.657.968 4.302 2.797l18.391 50.44-27.64 83.782-45.601-134.33c-.538-1.72.107-2.689 1.72-2.689h14.52c.645 0 1.183-.537 1.183-1.29v-7.529c0-.645-.538-1.29-1.183-1.29-15.273.86-30.545.968-44.849 1.075 22.478-34.308 61.304-57.109 105.4-57.109zm110.454 65.713c9.68 17.746 15.165 38.18 15.165 59.798 0 47.537-26.35 88.836-65.283 110.131l39.148-110.884c6.023-17.1 11.615-40.331 10.97-59.045zm-68.402 178.103a126.488 126.488 0 01-42.052 7.206c-12.69 0-24.951-1.936-36.46-5.378l38.719-110.884 39.793 109.056zm-95.72-4.84C49.836 216.335 20.474 173.1 20.474 122.982c0-18.606 4.087-36.244 11.293-52.054l60.55 165.52zm53.668-250.806c75.823 0 137.342 61.518 137.342 137.341s-61.52 137.341-137.342 137.341S8.643 198.805 8.643 122.982 70.16-14.359 145.984-14.359zm0-8.604c80.663 0 146.053 65.39 146.053 146.053s-65.39 145.945-146.053 145.945S.04 203.645.04 122.982 65.429-22.963 145.984-22.963z" fill-rule="evenodd" clip-rule="evenodd" fill="#f2f2f2" opacity=".3"/>
	<path d="M133.7 45.7l-5.4-2L45.6 74c-2.3.8-3.7 2.8-3.7 5.4l1.7 46.9c1.1 38.7 20.7 67.6 51.3 86.3 2.8 1.7 6.5.6 7.9-2.5l17.8-41.9c.6-1.4-.3-3.1-1.7-3.7-13-4-22.7-16.1-22.7-30.5 0-17.5 14.2-31.7 31.7-31.7 1.4 0 2.8 0 4.2.3l1.6-56.9z" fill="#fff"/>
	<linearGradient id="a" gradientUnits="userSpaceOnUse" x1="171.874" y1="155.574" x2="186.768" y2="56.004" gradientTransform="matrix(1 0 0 -1 0 258)">
		<stop offset="0" stop-color="#fff"/>
		<stop offset="1" stop-color="#fff" stop-opacity=".4"/>
	</linearGradient>
	<path d="M128.3 102c17.6 0 31.7 14.1 31.7 31.7 0 14.4-9.6 26.6-22.7 30.5-1.4.6-2.3 2.3-1.7 3.7l17.8 41.9c1.4 3.1 5.1 4.2 7.9 2.5 30.6-18.7 50.1-47.5 51.3-86.3l1.7-46.9c0-2.3-1.4-4.5-3.7-5.4L128 43.5V102h.3z" fill="url(#a)"/>
</svg>